<svg xmlns="http://www.w3.org/2000/svg" xmlns:xlink="http://www.w3.org/1999/xlink" width="500" zoomAndPan="magnify" viewBox="0 0 375 374.999991" height="500" preserveAspectRatio="xMidYMid meet" version="1.2"><defs><clipPath id="400988d82c"><path d="M 217 58.917969 L 242 58.917969 L 242 170 L 217 170 Z M 217 58.917969 "/></clipPath><clipPath id="6e0809b1db"><path d="M 104.875 139.253906 L 278.402344 139.253906 L 278.402344 196.699219 L 104.875 196.699219 Z M 104.875 139.253906 "/></clipPath><clipPath id="11c6b575d6"><path d="M 137 58.917969 L 203 58.917969 L 203 144.707031 L 137 144.707031 Z M 137 58.917969 "/></clipPath><clipPath id="dfcdd57b34"><path d="M 117 83 L 167 83 L 167 144.707031 L 117 144.707031 Z M 117 83 "/></clipPath><clipPath id="c9f64e3c4c"><path d="M 105.214844 103 L 167 103 L 167 144.707031 L 105.214844 144.707031 Z M 105.214844 103 "/></clipPath><clipPath id="43e8cfd855"><path d="M 169.023438 76.8125 L 188.199219 76.8125 L 188.199219 113.109375 L 169.023438 113.109375 Z M 169.023438 76.8125 "/></clipPath></defs><g id="6214dcb7e6"><path style=" stroke:none;fill-rule:nonzero;fill:#e0e0c5;fill-opacity:1;" d="M 138.785156 176.496094 C 140.09375 176.078125 150.601562 177.605469 150.847656 177.308594 C 150.953125 177.179688 152.773438 177.257812 154.753906 177.390625 L 154.761719 137.5625 C 141.832031 141.6875 133.367188 141.726562 133.367188 141.726562 L 133.367188 176.363281 C 135.585938 176.558594 138.09375 176.714844 138.785156 176.496094 "/><g clip-rule="nonzero" clip-path="url(#400988d82c)"><path style=" stroke:none;fill-rule:nonzero;fill:#e0e0c5;fill-opacity:1;" d="M 232.445312 162.304688 L 241.054688 156.503906 L 241.015625 58.917969 C 233.445312 72.875 225.355469 84.472656 217.140625 94.121094 L 217.207031 169.410156 C 219.90625 168.917969 222.015625 168.507812 222.21875 168.394531 C 222.820312 168.0625 232.445312 162.304688 232.445312 162.304688 "/></g><path style=" stroke:none;fill-rule:nonzero;fill:#e0e0c5;fill-opacity:1;" d="M 181.367188 175.972656 L 183.589844 175.8125 L 183.609375 123.824219 C 175.171875 129.246094 167.214844 133.027344 160.222656 135.660156 L 160.207031 177.769531 L 170.347656 177.050781 L 181.367188 175.972656 "/><path style=" stroke:none;fill-rule:nonzero;fill:#e0e0c5;fill-opacity:1;" d="M 204.390625 171.644531 C 204.390625 171.644531 207.824219 171.0625 211.675781 170.390625 L 211.675781 100.238281 C 204.074219 108.351562 196.4375 114.875 189.074219 120.125 L 189.074219 175.417969 L 192.917969 175.144531 L 204.390625 171.644531 "/><path style=" stroke:none;fill-rule:nonzero;fill:#e0e0c5;fill-opacity:1;" d="M 268.695312 139.125 C 267.667969 134.011719 260.820312 130.472656 250.140625 128.660156 L 245.535156 128.152344 L 245.464844 128.261719 C 245.464844 128.261719 274.109375 135.378906 252.753906 148.917969 C 247.800781 152.25 238.167969 157.859375 222.914062 163.292969 C 222.914062 163.292969 222.898438 163.300781 222.867188 163.3125 L 212.777344 166.601562 C 207.011719 168.324219 200.621094 169.96875 193.574219 171.453125 C 184.71875 173.320312 176.707031 174.515625 169.527344 175.238281 C 166.964844 175.613281 158.382812 176.042969 158.382812 176.042969 C 136.351562 176.953125 124.96875 173.253906 124.96875 173.253906 C 123.445312 172.828125 121.734375 172.210938 119.875 171.25 C 109.140625 165.726562 125.214844 153.554688 130.351562 149.980469 L 124.941406 153.003906 C 114.242188 159.269531 108.335938 165.75 109.453125 171.304688 C 111.316406 180.570312 132.164062 184.671875 160.527344 182.691406 C 165.941406 182.097656 171.546875 181.480469 171.546875 181.480469 C 178.644531 180.652344 186.078125 179.484375 193.707031 177.953125 C 201.082031 176.472656 208.152344 174.742188 214.820312 172.84375 L 218.339844 171.757812 C 221.65625 171.039062 225.011719 169.695312 225.011719 169.695312 C 252.484375 160.519531 270.582031 148.5 268.695312 139.125 "/><g clip-rule="nonzero" clip-path="url(#6e0809b1db)"><path style=" stroke:none;fill-rule:nonzero;fill:#e0e0c5;fill-opacity:1;" d="M 275.929688 139.292969 C 276.164062 139.859375 276.347656 140.441406 276.464844 141.039062 C 278.898438 153.140625 257.152344 168.230469 224.617188 178.816406 C 224.617188 178.816406 220.035156 180.203125 215.183594 181.671875 C 208.925781 183.429688 202.355469 185.015625 195.546875 186.382812 C 189.324219 187.632812 183.214844 188.636719 177.28125 189.410156 C 177.28125 189.410156 172.777344 189.90625 167.664062 190.472656 C 136.160156 193.316406 111.335938 189.152344 104.875 179.3125 C 107.191406 185.414062 114.183594 192.234375 132.761719 195.351562 C 145.515625 196.832031 157.671875 197 169.015625 196.304688 C 173.867188 195.894531 178.59375 195.496094 178.59375 195.496094 C 192.546875 194.003906 205.042969 191.285156 215.601562 188.261719 C 225.191406 185.277344 225.191406 185.277344 225.191406 185.277344 C 240.234375 180.214844 249.757812 175.152344 251.710938 174.074219 C 281.855469 156.992188 280.476562 145.316406 275.929688 139.292969 "/></g><g clip-rule="nonzero" clip-path="url(#11c6b575d6)"><path style=" stroke:none;fill-rule:nonzero;fill:#e0e0c5;fill-opacity:1;" d="M 194.796875 58.917969 L 137.808594 69.839844 C 137.808594 69.839844 167.695312 116.871094 166.058594 144.710938 C 167.933594 110.988281 152.1875 75.78125 152.1875 75.78125 C 152.1875 75.78125 184.496094 68.878906 191.632812 67.988281 C 191.632812 67.988281 200.074219 76.28125 202.296875 97.496094 C 205.597656 78.78125 194.796875 58.917969 194.796875 58.917969 Z M 194.796875 58.917969 "/></g><g clip-rule="nonzero" clip-path="url(#dfcdd57b34)"><path style=" stroke:none;fill-rule:nonzero;fill:#e0e0c5;fill-opacity:1;" d="M 166.058594 144.710938 C 165.238281 142.605469 164.164062 140.527344 162.890625 138.476562 C 150.234375 118.070312 117.550781 100.234375 117.550781 100.234375 L 142.09375 83.886719 C 142.996094 85.5 144.175781 87.304688 145.269531 89.351562 C 140.210938 92.898438 133.628906 97.5 130.851562 100.519531 C 130.851562 100.519531 151.085938 113.980469 162.503906 136.566406 C 163.828125 139.160156 165.039062 141.875 166.058594 144.710938 Z M 166.058594 144.710938 "/></g><g clip-rule="nonzero" clip-path="url(#c9f64e3c4c)"><path style=" stroke:none;fill-rule:nonzero;fill:#e0e0c5;fill-opacity:1;" d="M 166.0625 144.703125 C 165.257812 143.78125 164.378906 142.886719 163.445312 142.03125 C 162.652344 141.3125 161.824219 140.597656 160.960938 139.925781 C 142.125 125.03125 105.328125 119.359375 105.328125 119.359375 L 117.101562 103.78125 C 118.265625 104.453125 120.5 105.574219 122.984375 107.113281 C 120.519531 110.738281 118.960938 112.636719 117.925781 115.097656 C 117.925781 115.097656 141.527344 120.898438 159.949219 138.257812 C 161.046875 139.277344 162.105469 140.335938 163.136719 141.4375 C 164.140625 142.476562 165.121094 143.570312 166.0625 144.703125 Z M 166.0625 144.703125 "/></g><g clip-rule="nonzero" clip-path="url(#43e8cfd855)"><path style=" stroke:none;fill-rule:nonzero;fill:#e0e0c5;fill-opacity:1;" d="M 173.113281 86.257812 C 173.113281 84.679688 173.726562 83.46875 174.953125 82.628906 C 175.847656 82.019531 176.765625 81.714844 177.699219 81.714844 L 177.699219 91.234375 C 174.640625 89.9375 173.113281 88.28125 173.113281 86.257812 Z M 179.46875 97.597656 C 182.777344 98.84375 184.429688 100.664062 184.429688 103.0625 C 184.429688 104.554688 183.816406 105.753906 182.589844 106.65625 C 181.636719 107.363281 180.597656 107.738281 179.46875 107.777344 Z M 173.230469 103.476562 C 173.792969 103.042969 174.074219 102.464844 174.074219 101.734375 C 174.074219 100.316406 173.328125 99.605469 171.839844 99.605469 C 171.199219 99.605469 170.628906 99.835938 170.128906 100.292969 C 169.390625 100.964844 169.023438 101.945312 169.023438 103.246094 C 169.023438 105.292969 169.894531 106.9375 171.636719 108.179688 C 173.261719 109.363281 175.28125 109.957031 177.699219 109.957031 L 177.699219 113.109375 L 179.46875 113.109375 L 179.46875 109.8125 C 182.792969 109.390625 185.191406 108.167969 186.664062 106.140625 C 187.6875 104.726562 188.199219 103.046875 188.199219 101.097656 C 188.199219 97.921875 186.351562 95.363281 182.660156 93.414062 C 181.304688 92.742188 180.242188 92.238281 179.46875 91.894531 L 179.46875 81.457031 C 180.539062 81.457031 181.542969 81.765625 182.476562 82.378906 C 183.410156 82.992188 183.878906 83.671875 183.878906 84.421875 C 183.878906 84.632812 183.683594 84.902344 183.296875 85.226562 C 182.910156 85.554688 182.71875 85.964844 182.71875 86.464844 C 182.71875 87.925781 183.375 88.652344 184.691406 88.652344 C 186.390625 88.652344 187.242188 87.582031 187.242188 85.441406 C 187.242188 83.953125 186.550781 82.660156 185.171875 81.570312 C 183.679688 80.425781 181.777344 79.851562 179.46875 79.851562 L 179.46875 76.8125 L 177.699219 76.8125 L 177.699219 79.851562 C 175.589844 79.910156 173.753906 80.671875 172.1875 82.144531 C 170.523438 83.691406 169.691406 85.574219 169.691406 87.792969 C 169.691406 90.203125 170.582031 92.152344 172.359375 93.640625 C 173.230469 94.367188 175.011719 95.390625 177.699219 96.710938 L 177.699219 107.921875 C 176.511719 107.976562 175.34375 107.691406 174.199219 107.058594 C 172.992188 106.367188 172.390625 105.570312 172.390625 104.667969 C 172.390625 104.304688 172.667969 103.90625 173.230469 103.476562 "/></g><g style="fill:#e0e0c5;fill-opacity:1;"><g transform="translate(62.202766, 244.475143)"><path style="stroke:none" d="M 18.875 -3.84375 L 10.046875 -3.84375 L 8.625 0 L 0.375 0 L 10.203125 -26.28125 L 18.8125 -26.28125 L 28.546875 0 L 20.234375 0 Z M 16.5625 -10.140625 L 14.515625 -17.34375 L 12.359375 -10.140625 Z M 16.5625 -10.140625 "/></g></g><g style="fill:#e0e0c5;fill-opacity:1;"><g transform="translate(89.448504, 244.475143)"><path style="stroke:none" d="M 16.5625 -10.984375 C 16.175781 -8.316406 15.085938 -6.984375 13.296875 -6.984375 C 12.210938 -6.984375 11.363281 -7.519531 10.75 -8.59375 C 10.132812 -9.664062 9.828125 -11.179688 9.828125 -13.140625 C 9.828125 -15.140625 10.132812 -16.671875 10.75 -17.734375 C 11.363281 -18.804688 12.210938 -19.34375 13.296875 -19.34375 C 14.109375 -19.34375 14.800781 -18.988281 15.375 -18.28125 C 15.957031 -17.582031 16.351562 -16.585938 16.5625 -15.296875 L 24.8125 -16.609375 C 24.144531 -19.835938 22.8125 -22.328125 20.8125 -24.078125 C 18.8125 -25.828125 16.289062 -26.703125 13.25 -26.703125 C 9.457031 -26.703125 6.535156 -25.523438 4.484375 -23.171875 C 2.441406 -20.828125 1.421875 -17.484375 1.421875 -13.140625 C 1.421875 -8.828125 2.441406 -5.488281 4.484375 -3.125 C 6.535156 -0.757812 9.457031 0.421875 13.25 0.421875 C 16.289062 0.421875 18.8125 -0.460938 20.8125 -2.234375 C 22.8125 -4.003906 24.144531 -6.484375 24.8125 -9.671875 Z M 16.5625 -10.984375 "/></g></g><g style="fill:#e0e0c5;fill-opacity:1;"><g transform="translate(114.012759, 244.475143)"><path style="stroke:none" d="M 16.5625 -10.984375 C 16.175781 -8.316406 15.085938 -6.984375 13.296875 -6.984375 C 12.210938 -6.984375 11.363281 -7.519531 10.75 -8.59375 C 10.132812 -9.664062 9.828125 -11.179688 9.828125 -13.140625 C 9.828125 -15.140625 10.132812 -16.671875 10.75 -17.734375 C 11.363281 -18.804688 12.210938 -19.34375 13.296875 -19.34375 C 14.109375 -19.34375 14.800781 -18.988281 15.375 -18.28125 C 15.957031 -17.582031 16.351562 -16.585938 16.5625 -15.296875 L 24.8125 -16.609375 C 24.144531 -19.835938 22.8125 -22.328125 20.8125 -24.078125 C 18.8125 -25.828125 16.289062 -26.703125 13.25 -26.703125 C 9.457031 -26.703125 6.535156 -25.523438 4.484375 -23.171875 C 2.441406 -20.828125 1.421875 -17.484375 1.421875 -13.140625 C 1.421875 -8.828125 2.441406 -5.488281 4.484375 -3.125 C 6.535156 -0.757812 9.457031 0.421875 13.25 0.421875 C 16.289062 0.421875 18.8125 -0.460938 20.8125 -2.234375 C 22.8125 -4.003906 24.144531 -6.484375 24.8125 -9.671875 Z M 16.5625 -10.984375 "/></g></g><g style="fill:#e0e0c5;fill-opacity:1;"><g transform="translate(138.577013, 244.475143)"><path style="stroke:none" d="M 13.765625 0.421875 C 9.847656 0.421875 6.8125 -0.757812 4.65625 -3.125 C 2.5 -5.488281 1.421875 -8.828125 1.421875 -13.140625 C 1.421875 -17.484375 2.5 -20.828125 4.65625 -23.171875 C 6.8125 -25.523438 9.847656 -26.703125 13.765625 -26.703125 C 17.734375 -26.703125 20.785156 -25.523438 22.921875 -23.171875 C 25.054688 -20.828125 26.125 -17.484375 26.125 -13.140625 C 26.125 -8.828125 25.054688 -5.488281 22.921875 -3.125 C 20.785156 -0.757812 17.734375 0.421875 13.765625 0.421875 Z M 13.765625 -6.984375 C 14.992188 -6.984375 15.945312 -7.519531 16.625 -8.59375 C 17.3125 -9.664062 17.675781 -11.179688 17.71875 -13.140625 C 17.675781 -15.140625 17.3125 -16.671875 16.625 -17.734375 C 15.945312 -18.804688 14.992188 -19.34375 13.765625 -19.34375 C 12.503906 -19.34375 11.53125 -18.804688 10.84375 -17.734375 C 10.164062 -16.671875 9.828125 -15.140625 9.828125 -13.140625 C 9.828125 -11.179688 10.164062 -9.664062 10.84375 -8.59375 C 11.53125 -7.519531 12.503906 -6.984375 13.765625 -6.984375 Z M 13.765625 -6.984375 "/></g></g><g style="fill:#e0e0c5;fill-opacity:1;"><g transform="translate(164.455712, 244.475143)"><path style="stroke:none" d="M 1.734375 -26.28125 L 10.25 -26.28125 L 10.25 -11.828125 C 10.25 -10.285156 10.503906 -9.09375 11.015625 -8.25 C 11.523438 -7.40625 12.25 -6.984375 13.1875 -6.984375 C 14.101562 -6.984375 14.804688 -7.40625 15.296875 -8.25 C 15.785156 -9.09375 16.03125 -10.285156 16.03125 -11.828125 L 16.03125 -26.28125 L 24.59375 -26.28125 L 24.59375 -11.828125 C 24.59375 -7.941406 23.59375 -4.925781 21.59375 -2.78125 C 19.601562 -0.644531 16.785156 0.421875 13.140625 0.421875 C 9.492188 0.421875 6.679688 -0.644531 4.703125 -2.78125 C 2.722656 -4.925781 1.734375 -7.941406 1.734375 -11.828125 Z M 1.734375 -26.28125 "/></g></g><g style="fill:#e0e0c5;fill-opacity:1;"><g transform="translate(189.125127, 244.475143)"><path style="stroke:none" d="M 1.734375 0 L 1.734375 -26.34375 L 8.9375 -26.34375 L 16.03125 -14.140625 L 16.03125 -26.28125 L 24.59375 -26.28125 L 24.59375 0 L 17.40625 -0.046875 L 10.25 -12.203125 L 10.25 0 Z M 1.734375 0 "/></g></g><g style="fill:#e0e0c5;fill-opacity:1;"><g transform="translate(213.794542, 244.475143)"><path style="stroke:none" d="M 24.390625 -18.921875 L 17.234375 -18.921875 L 17.234375 0 L 8.71875 0 L 8.71875 -18.921875 L 1.53125 -18.921875 L 1.53125 -26.28125 L 24.390625 -26.28125 Z M 24.390625 -18.921875 "/></g></g><g style="fill:#e0e0c5;fill-opacity:1;"><g transform="translate(238.09591, 244.475143)"><path style="stroke:none" d="M 10.25 -26.28125 L 10.25 0 L 1.734375 0 L 1.734375 -26.28125 Z M 10.25 -26.28125 "/></g></g><g style="fill:#e0e0c5;fill-opacity:1;"><g transform="translate(248.464088, 244.475143)"><path style="stroke:none" d="M 1.734375 0 L 1.734375 -26.34375 L 8.9375 -26.34375 L 16.03125 -14.140625 L 16.03125 -26.28125 L 24.59375 -26.28125 L 24.59375 0 L 17.40625 -0.046875 L 10.25 -12.203125 L 10.25 0 Z M 1.734375 0 "/></g></g><g style="fill:#e0e0c5;fill-opacity:1;"><g transform="translate(273.133502, 244.475143)"><path style="stroke:none" d="M 25.171875 0 L 21.390625 0 L 20.453125 -2.890625 C 18.421875 -0.679688 16.054688 0.421875 13.359375 0.421875 C 9.535156 0.421875 6.585938 -0.757812 4.515625 -3.125 C 2.453125 -5.488281 1.421875 -8.828125 1.421875 -13.140625 C 1.421875 -17.484375 2.453125 -20.828125 4.515625 -23.171875 C 6.585938 -25.523438 9.535156 -26.703125 13.359375 -26.703125 C 16.648438 -26.703125 19.289062 -25.84375 21.28125 -24.125 C 23.28125 -22.40625 24.546875 -19.972656 25.078125 -16.828125 L 16.765625 -15.34375 C 16.347656 -18.007812 15.226562 -19.34375 13.40625 -19.34375 C 12.25 -19.34375 11.363281 -18.804688 10.75 -17.734375 C 10.132812 -16.671875 9.828125 -15.140625 9.828125 -13.140625 C 9.828125 -11.179688 10.132812 -9.664062 10.75 -8.59375 C 11.363281 -7.519531 12.25 -6.984375 13.40625 -6.984375 C 14.382812 -6.984375 15.140625 -7.738281 15.671875 -9.25 L 13.25 -9.25 L 13.25 -13.9375 L 25.34375 -13.9375 Z M 25.171875 0 "/></g></g><g style="fill:#e0e0c5;fill-opacity:1;"><g transform="translate(298.549784, 244.475143)"><path style="stroke:none" d=""/></g></g><g style="fill:#e0e0c5;fill-opacity:1;"><g transform="translate(110.808595, 276.809244)"><path style="stroke:none" d="M 15.703125 -13.359375 L 15.21875 -13.359375 C 15.101562 -14.316406 14.753906 -15.023438 14.171875 -15.484375 C 13.585938 -15.953125 12.695312 -16.1875 11.5 -16.1875 L 6.125 -16.1875 L 6.125 -9.46875 L 10.34375 -9.46875 C 11.226562 -9.46875 11.847656 -9.628906 12.203125 -9.953125 C 12.566406 -10.273438 12.75 -10.785156 12.75 -11.484375 L 12.75 -11.875 L 13.1875 -11.875 L 13.1875 -6.078125 L 12.75 -6.078125 L 12.75 -6.375 C 12.75 -7.101562 12.570312 -7.632812 12.21875 -7.96875 C 11.875 -8.3125 11.332031 -8.484375 10.59375 -8.484375 L 6.125 -8.484375 L 6.125 -2.484375 C 6.125 -1.691406 6.320312 -1.15625 6.71875 -0.875 C 7.113281 -0.59375 7.734375 -0.453125 8.578125 -0.453125 L 8.578125 0 L 1.0625 0 L 1.0625 -0.453125 L 1.21875 -0.453125 C 1.957031 -0.453125 2.515625 -0.601562 2.890625 -0.90625 C 3.265625 -1.207031 3.453125 -1.738281 3.453125 -2.5 L 3.453125 -14.65625 C 3.453125 -15.351562 3.257812 -15.847656 2.875 -16.140625 C 2.5 -16.441406 1.894531 -16.59375 1.0625 -16.59375 L 1.0625 -17.03125 L 15.515625 -17.03125 Z M 15.703125 -13.359375 "/></g></g><g style="fill:#e0e0c5;fill-opacity:1;"><g transform="translate(127.021225, 276.809244)"><path style="stroke:none" d="M 3.375 -17.859375 C 3.738281 -17.859375 4.039062 -17.734375 4.28125 -17.484375 C 4.53125 -17.234375 4.65625 -16.9375 4.65625 -16.59375 C 4.65625 -16.226562 4.53125 -15.921875 4.28125 -15.671875 C 4.039062 -15.421875 3.738281 -15.296875 3.375 -15.296875 C 3.03125 -15.296875 2.734375 -15.421875 2.484375 -15.671875 C 2.234375 -15.921875 2.109375 -16.226562 2.109375 -16.59375 C 2.109375 -16.9375 2.234375 -17.234375 2.484375 -17.484375 C 2.734375 -17.734375 3.03125 -17.859375 3.375 -17.859375 Z M 4.46875 -2.578125 C 4.46875 -1.765625 4.597656 -1.207031 4.859375 -0.90625 C 5.117188 -0.613281 5.550781 -0.460938 6.15625 -0.453125 L 6.15625 0 L 0.578125 0 L 0.578125 -0.453125 C 1.253906 -0.453125 1.734375 -0.609375 2.015625 -0.921875 C 2.296875 -1.234375 2.4375 -1.800781 2.4375 -2.625 L 2.4375 -8.625 C 2.4375 -9.070312 2.332031 -9.4375 2.125 -9.71875 C 1.925781 -10 1.625 -10.140625 1.21875 -10.140625 C 1.03125 -10.140625 0.863281 -10.097656 0.71875 -10.015625 L 0.578125 -10.46875 L 4.015625 -11.78125 L 4.46875 -11.78125 Z M 4.46875 -2.578125 "/></g></g><g style="fill:#e0e0c5;fill-opacity:1;"><g transform="translate(133.417034, 276.809244)"><path style="stroke:none" d="M 4.4375 -9.34375 C 5.300781 -10.269531 6.003906 -10.90625 6.546875 -11.25 C 7.085938 -11.601562 7.691406 -11.78125 8.359375 -11.78125 C 9.085938 -11.78125 9.671875 -11.582031 10.109375 -11.1875 C 10.554688 -10.800781 10.878906 -10.328125 11.078125 -9.765625 C 11.273438 -9.203125 11.375 -8.648438 11.375 -8.109375 L 11.375 -2.625 C 11.375 -1.78125 11.503906 -1.210938 11.765625 -0.921875 C 12.035156 -0.640625 12.492188 -0.484375 13.140625 -0.453125 L 13.140625 0 L 7.34375 0 L 7.34375 -0.453125 C 7.875 -0.453125 8.273438 -0.507812 8.546875 -0.625 C 8.828125 -0.738281 9.03125 -0.945312 9.15625 -1.25 C 9.28125 -1.5625 9.34375 -2.019531 9.34375 -2.625 L 9.34375 -8.203125 C 9.34375 -8.734375 9.171875 -9.21875 8.828125 -9.65625 C 8.484375 -10.09375 8.003906 -10.3125 7.390625 -10.3125 C 6.878906 -10.3125 6.390625 -10.175781 5.921875 -9.90625 C 5.460938 -9.632812 4.96875 -9.21875 4.4375 -8.65625 L 4.4375 -2.625 C 4.4375 -1.769531 4.578125 -1.195312 4.859375 -0.90625 C 5.140625 -0.613281 5.628906 -0.460938 6.328125 -0.453125 L 6.328125 0 L 0.625 0 L 0.625 -0.453125 C 1.132812 -0.492188 1.507812 -0.582031 1.75 -0.71875 C 2 -0.851562 2.171875 -1.0625 2.265625 -1.34375 C 2.359375 -1.625 2.40625 -2.023438 2.40625 -2.546875 L 2.40625 -8.734375 C 2.40625 -9.109375 2.320312 -9.4375 2.15625 -9.71875 C 1.988281 -10 1.722656 -10.140625 1.359375 -10.140625 C 1.191406 -10.140625 1.035156 -10.109375 0.890625 -10.046875 C 0.753906 -9.992188 0.664062 -9.957031 0.625 -9.9375 L 0.453125 -10.421875 L 4.015625 -11.78125 L 4.4375 -11.78125 Z M 4.4375 -9.34375 "/></g></g><g style="fill:#e0e0c5;fill-opacity:1;"><g transform="translate(146.77882, 276.809244)"><path style="stroke:none" d="M 5.921875 -11.78125 C 8.398438 -11.78125 9.640625 -10.785156 9.640625 -8.796875 L 9.640625 -2.234375 C 9.640625 -1.785156 9.707031 -1.488281 9.84375 -1.34375 C 9.976562 -1.207031 10.148438 -1.140625 10.359375 -1.140625 C 10.609375 -1.140625 10.835938 -1.207031 11.046875 -1.34375 C 11.265625 -1.488281 11.582031 -1.757812 12 -2.15625 L 12 -1.53125 C 11.375 -0.820312 10.859375 -0.332031 10.453125 -0.0625 C 10.046875 0.207031 9.628906 0.34375 9.203125 0.34375 C 8.722656 0.34375 8.335938 0.175781 8.046875 -0.15625 C 7.753906 -0.5 7.609375 -1 7.609375 -1.65625 C 6.878906 -0.96875 6.203125 -0.460938 5.578125 -0.140625 C 4.960938 0.179688 4.296875 0.34375 3.578125 0.34375 C 2.847656 0.34375 2.234375 0.0703125 1.734375 -0.46875 C 1.234375 -1.019531 0.984375 -1.679688 0.984375 -2.453125 C 0.984375 -3.773438 1.6875 -4.800781 3.09375 -5.53125 C 4.4375 -6.238281 5.941406 -6.890625 7.609375 -7.484375 L 7.609375 -8.1875 C 7.609375 -8.84375 7.5625 -9.367188 7.46875 -9.765625 C 7.382812 -10.160156 7.179688 -10.476562 6.859375 -10.71875 C 6.535156 -10.957031 6.039062 -11.078125 5.375 -11.078125 C 4.726562 -11.078125 4.25 -10.921875 3.9375 -10.609375 C 3.625 -10.296875 3.46875 -9.910156 3.46875 -9.453125 L 3.5 -8.796875 C 3.5 -8.515625 3.40625 -8.28125 3.21875 -8.09375 C 3.039062 -7.914062 2.8125 -7.828125 2.53125 -7.828125 C 2.21875 -7.828125 1.960938 -7.914062 1.765625 -8.09375 C 1.566406 -8.28125 1.46875 -8.539062 1.46875 -8.875 C 1.46875 -9.695312 1.851562 -10.382812 2.625 -10.9375 C 3.40625 -11.5 4.503906 -11.78125 5.921875 -11.78125 Z M 3.09375 -3.09375 C 3.09375 -2.53125 3.269531 -2.050781 3.625 -1.65625 C 3.988281 -1.257812 4.429688 -1.0625 4.953125 -1.0625 C 5.796875 -1.0625 6.679688 -1.476562 7.609375 -2.3125 L 7.609375 -6.8125 C 6.453125 -6.332031 5.5625 -5.914062 4.9375 -5.5625 C 4.3125 -5.207031 3.847656 -4.835938 3.546875 -4.453125 C 3.242188 -4.078125 3.09375 -3.625 3.09375 -3.09375 Z M 3.09375 -3.09375 "/></g></g><g style="fill:#e0e0c5;fill-opacity:1;"><g transform="translate(158.85152, 276.809244)"><path style="stroke:none" d="M 4.4375 -9.34375 C 5.300781 -10.269531 6.003906 -10.90625 6.546875 -11.25 C 7.085938 -11.601562 7.691406 -11.78125 8.359375 -11.78125 C 9.085938 -11.78125 9.671875 -11.582031 10.109375 -11.1875 C 10.554688 -10.800781 10.878906 -10.328125 11.078125 -9.765625 C 11.273438 -9.203125 11.375 -8.648438 11.375 -8.109375 L 11.375 -2.625 C 11.375 -1.78125 11.503906 -1.210938 11.765625 -0.921875 C 12.035156 -0.640625 12.492188 -0.484375 13.140625 -0.453125 L 13.140625 0 L 7.34375 0 L 7.34375 -0.453125 C 7.875 -0.453125 8.273438 -0.507812 8.546875 -0.625 C 8.828125 -0.738281 9.03125 -0.945312 9.15625 -1.25 C 9.28125 -1.5625 9.34375 -2.019531 9.34375 -2.625 L 9.34375 -8.203125 C 9.34375 -8.734375 9.171875 -9.21875 8.828125 -9.65625 C 8.484375 -10.09375 8.003906 -10.3125 7.390625 -10.3125 C 6.878906 -10.3125 6.390625 -10.175781 5.921875 -9.90625 C 5.460938 -9.632812 4.96875 -9.21875 4.4375 -8.65625 L 4.4375 -2.625 C 4.4375 -1.769531 4.578125 -1.195312 4.859375 -0.90625 C 5.140625 -0.613281 5.628906 -0.460938 6.328125 -0.453125 L 6.328125 0 L 0.625 0 L 0.625 -0.453125 C 1.132812 -0.492188 1.507812 -0.582031 1.75 -0.71875 C 2 -0.851562 2.171875 -1.0625 2.265625 -1.34375 C 2.359375 -1.625 2.40625 -2.023438 2.40625 -2.546875 L 2.40625 -8.734375 C 2.40625 -9.109375 2.320312 -9.4375 2.15625 -9.71875 C 1.988281 -10 1.722656 -10.140625 1.359375 -10.140625 C 1.191406 -10.140625 1.035156 -10.109375 0.890625 -10.046875 C 0.753906 -9.992188 0.664062 -9.957031 0.625 -9.9375 L 0.453125 -10.421875 L 4.015625 -11.78125 L 4.4375 -11.78125 Z M 4.4375 -9.34375 "/></g></g><g style="fill:#e0e0c5;fill-opacity:1;"><g transform="translate(172.213307, 276.809244)"><path style="stroke:none" d="M 6.25 -11.78125 C 6.957031 -11.78125 7.617188 -11.65625 8.234375 -11.40625 C 8.847656 -11.15625 9.332031 -10.828125 9.6875 -10.421875 C 10.039062 -10.015625 10.21875 -9.582031 10.21875 -9.125 C 10.21875 -8.820312 10.101562 -8.570312 9.875 -8.375 C 9.65625 -8.175781 9.375 -8.078125 9.03125 -8.078125 C 8.226562 -8.078125 7.789062 -8.523438 7.71875 -9.421875 C 7.675781 -9.835938 7.503906 -10.207031 7.203125 -10.53125 C 6.910156 -10.863281 6.453125 -11.03125 5.828125 -11.03125 C 4.847656 -11.03125 4.0625 -10.640625 3.46875 -9.859375 C 2.875 -9.085938 2.578125 -8.054688 2.578125 -6.765625 C 2.578125 -5.234375 2.941406 -4 3.671875 -3.0625 C 4.398438 -2.125 5.367188 -1.65625 6.578125 -1.65625 C 7.460938 -1.65625 8.207031 -1.90625 8.8125 -2.40625 C 9.414062 -2.90625 9.847656 -3.59375 10.109375 -4.46875 L 10.515625 -4.296875 C 10.179688 -2.898438 9.570312 -1.773438 8.6875 -0.921875 C 7.800781 -0.078125 6.796875 0.34375 5.671875 0.34375 C 4.710938 0.34375 3.84375 0.0859375 3.0625 -0.421875 C 2.289062 -0.929688 1.6875 -1.632812 1.25 -2.53125 C 0.8125 -3.4375 0.59375 -4.460938 0.59375 -5.609375 C 0.59375 -6.796875 0.832031 -7.851562 1.3125 -8.78125 C 1.789062 -9.71875 2.457031 -10.453125 3.3125 -10.984375 C 4.175781 -11.515625 5.15625 -11.78125 6.25 -11.78125 Z M 6.25 -11.78125 "/></g></g><g style="fill:#e0e0c5;fill-opacity:1;"><g transform="translate(182.749033, 276.809244)"><path style="stroke:none" d="M 5.828125 -11.78125 C 7.117188 -11.78125 8.164062 -11.347656 8.96875 -10.484375 C 9.769531 -9.628906 10.171875 -8.515625 10.171875 -7.140625 L 2.375 -7.140625 L 2.375 -6.8125 C 2.375 -5.9375 2.546875 -5.097656 2.890625 -4.296875 C 3.242188 -3.492188 3.734375 -2.84375 4.359375 -2.34375 C 4.992188 -1.851562 5.707031 -1.609375 6.5 -1.609375 C 8.070312 -1.609375 9.171875 -2.484375 9.796875 -4.234375 L 10.171875 -4.046875 C 9.898438 -2.691406 9.351562 -1.617188 8.53125 -0.828125 C 7.707031 -0.046875 6.710938 0.34375 5.546875 0.34375 C 4.691406 0.34375 3.894531 0.125 3.15625 -0.3125 C 2.425781 -0.757812 1.832031 -1.429688 1.375 -2.328125 C 0.914062 -3.222656 0.6875 -4.304688 0.6875 -5.578125 C 0.6875 -6.804688 0.898438 -7.890625 1.328125 -8.828125 C 1.765625 -9.765625 2.367188 -10.488281 3.140625 -11 C 3.921875 -11.519531 4.816406 -11.78125 5.828125 -11.78125 Z M 5.140625 -10.90625 C 4.441406 -10.90625 3.835938 -10.632812 3.328125 -10.09375 C 2.828125 -9.550781 2.53125 -8.820312 2.4375 -7.90625 L 7.609375 -7.90625 C 7.578125 -8.800781 7.347656 -9.523438 6.921875 -10.078125 C 6.503906 -10.628906 5.910156 -10.90625 5.140625 -10.90625 Z M 5.140625 -10.90625 "/></g></g><g style="fill:#e0e0c5;fill-opacity:1;"><g transform="translate(193.284759, 276.809244)"><path style="stroke:none" d=""/></g></g><g style="fill:#e0e0c5;fill-opacity:1;"><g transform="translate(199.159982, 276.809244)"><path style="stroke:none" d="M 2.859375 -3.296875 L 9.203125 -17.78125 L 9.640625 -17.78125 L 16.34375 -2.359375 C 16.59375 -1.796875 16.828125 -1.375 17.046875 -1.09375 C 17.265625 -0.820312 17.5 -0.644531 17.75 -0.5625 C 18 -0.488281 18.335938 -0.453125 18.765625 -0.453125 L 18.765625 0 L 11.78125 0 L 11.78125 -0.453125 C 12.375 -0.453125 12.816406 -0.554688 13.109375 -0.765625 C 13.410156 -0.984375 13.5625 -1.273438 13.5625 -1.640625 C 13.5625 -1.953125 13.453125 -2.335938 13.234375 -2.796875 L 11.953125 -5.734375 L 5.078125 -5.734375 L 3.671875 -2.484375 C 3.503906 -2.148438 3.421875 -1.851562 3.421875 -1.59375 C 3.421875 -0.832031 4.03125 -0.453125 5.25 -0.453125 L 5.25 0 L 0.34375 0 L 0.34375 -0.453125 C 0.757812 -0.492188 1.09375 -0.609375 1.34375 -0.796875 C 1.601562 -0.992188 1.835938 -1.273438 2.046875 -1.640625 C 2.253906 -2.003906 2.523438 -2.554688 2.859375 -3.296875 Z M 11.5625 -6.671875 L 8.53125 -13.59375 L 5.5 -6.671875 Z M 11.5625 -6.671875 "/></g></g><g style="fill:#e0e0c5;fill-opacity:1;"><g transform="translate(217.950759, 276.809244)"><path style="stroke:none" d="M 14.53125 -12.28125 C 14.53125 -11.394531 14.289062 -10.59375 13.8125 -9.875 C 13.332031 -9.15625 12.675781 -8.585938 11.84375 -8.171875 C 11.007812 -7.765625 10.070312 -7.5625 9.03125 -7.5625 C 7.875 -7.5625 6.773438 -7.753906 5.734375 -8.140625 L 5.734375 -2.5 C 5.734375 -1.675781 5.929688 -1.128906 6.328125 -0.859375 C 6.734375 -0.585938 7.382812 -0.453125 8.28125 -0.453125 L 8.28125 0 L 0.625 0 L 0.625 -0.453125 C 1.53125 -0.453125 2.160156 -0.601562 2.515625 -0.90625 C 2.867188 -1.207031 3.046875 -1.738281 3.046875 -2.5 L 3.046875 -14.5625 C 3.046875 -15.332031 2.851562 -15.863281 2.46875 -16.15625 C 2.09375 -16.445312 1.523438 -16.59375 0.765625 -16.59375 L 0.625 -16.59375 L 0.625 -17.03125 L 8.078125 -17.03125 C 9.160156 -17.03125 10.191406 -16.863281 11.171875 -16.53125 C 12.148438 -16.207031 12.953125 -15.6875 13.578125 -14.96875 C 14.210938 -14.25 14.53125 -13.351562 14.53125 -12.28125 Z M 5.734375 -15.765625 L 5.734375 -9 C 6.503906 -8.664062 7.203125 -8.5 7.828125 -8.5 C 8.910156 -8.5 9.78125 -8.832031 10.4375 -9.5 C 11.101562 -10.175781 11.4375 -11.066406 11.4375 -12.171875 C 11.4375 -13.328125 11.085938 -14.269531 10.390625 -15 C 9.691406 -15.726562 8.734375 -16.09375 7.515625 -16.09375 C 6.960938 -16.09375 6.367188 -15.984375 5.734375 -15.765625 Z M 5.734375 -15.765625 "/></g></g><g style="fill:#e0e0c5;fill-opacity:1;"><g transform="translate(232.601618, 276.809244)"><path style="stroke:none" d="M 14.53125 -12.28125 C 14.53125 -11.394531 14.289062 -10.59375 13.8125 -9.875 C 13.332031 -9.15625 12.675781 -8.585938 11.84375 -8.171875 C 11.007812 -7.765625 10.070312 -7.5625 9.03125 -7.5625 C 7.875 -7.5625 6.773438 -7.753906 5.734375 -8.140625 L 5.734375 -2.5 C 5.734375 -1.675781 5.929688 -1.128906 6.328125 -0.859375 C 6.734375 -0.585938 7.382812 -0.453125 8.28125 -0.453125 L 8.28125 0 L 0.625 0 L 0.625 -0.453125 C 1.53125 -0.453125 2.160156 -0.601562 2.515625 -0.90625 C 2.867188 -1.207031 3.046875 -1.738281 3.046875 -2.5 L 3.046875 -14.5625 C 3.046875 -15.332031 2.851562 -15.863281 2.46875 -16.15625 C 2.09375 -16.445312 1.523438 -16.59375 0.765625 -16.59375 L 0.625 -16.59375 L 0.625 -17.03125 L 8.078125 -17.03125 C 9.160156 -17.03125 10.191406 -16.863281 11.171875 -16.53125 C 12.148438 -16.207031 12.953125 -15.6875 13.578125 -14.96875 C 14.210938 -14.25 14.53125 -13.351562 14.53125 -12.28125 Z M 5.734375 -15.765625 L 5.734375 -9 C 6.503906 -8.664062 7.203125 -8.5 7.828125 -8.5 C 8.910156 -8.5 9.78125 -8.832031 10.4375 -9.5 C 11.101562 -10.175781 11.4375 -11.066406 11.4375 -12.171875 C 11.4375 -13.328125 11.085938 -14.269531 10.390625 -15 C 9.691406 -15.726562 8.734375 -16.09375 7.515625 -16.09375 C 6.960938 -16.09375 6.367188 -15.984375 5.734375 -15.765625 Z M 5.734375 -15.765625 "/></g></g></g></svg>