<svg xmlns="http://www.w3.org/2000/svg" xmlns:xlink="http://www.w3.org/1999/xlink" width="500" zoomAndPan="magnify" viewBox="0 0 375 374.999991" height="500" preserveAspectRatio="xMidYMid meet" version="1.2"><defs><clipPath id="13827e7f18"><path d="M 240 62.691406 L 285 62.691406 L 285 263 L 240 263 Z M 240 62.691406 "/></clipPath><clipPath id="81b1953598"><path d="M 37.5625 208.226562 L 351.921875 208.226562 L 351.921875 312.289062 L 37.5625 312.289062 Z M 37.5625 208.226562 "/></clipPath><clipPath id="3832ab14f6"><path d="M 97 62.691406 L 216 62.691406 L 216 218.101562 L 97 218.101562 Z M 97 62.691406 "/></clipPath><clipPath id="9d21d6de83"><path d="M 60 107 L 149 107 L 149 218.101562 L 60 218.101562 Z M 60 107 "/></clipPath><clipPath id="2eaca97d0d"><path d="M 38.179688 143 L 149 143 L 149 218.101562 L 38.179688 218.101562 Z M 38.179688 143 "/></clipPath><clipPath id="24a55f6aa5"><path d="M 153.773438 95.101562 L 188.511719 95.101562 L 188.511719 160.859375 L 153.773438 160.859375 Z M 153.773438 95.101562 "/></clipPath></defs><g id="7bc9f89ce0"><path style=" stroke:none;fill-rule:nonzero;fill:#256133;fill-opacity:1;" d="M 98.992188 275.6875 C 101.367188 274.929688 120.402344 277.699219 120.84375 277.164062 C 121.039062 276.925781 124.332031 277.074219 127.925781 277.308594 L 127.933594 205.160156 C 104.511719 212.628906 89.179688 212.699219 89.179688 212.699219 L 89.179688 275.449219 C 93.199219 275.804688 97.742188 276.085938 98.992188 275.6875 "/><g clip-rule="nonzero" clip-path="url(#13827e7f18)"><path style=" stroke:none;fill-rule:nonzero;fill:#256133;fill-opacity:1;" d="M 268.664062 249.980469 L 284.261719 239.472656 L 284.191406 62.6875 C 270.476562 87.96875 255.820312 108.984375 240.941406 126.460938 L 241.058594 262.851562 C 245.953125 261.964844 249.773438 261.222656 250.144531 261.015625 C 251.230469 260.410156 268.664062 249.980469 268.664062 249.980469 "/></g><path style=" stroke:none;fill-rule:nonzero;fill:#256133;fill-opacity:1;" d="M 176.132812 274.746094 L 180.160156 274.453125 L 180.199219 180.269531 C 164.910156 190.09375 150.492188 196.941406 137.832031 201.714844 L 137.800781 277.996094 L 156.171875 276.691406 L 176.132812 274.746094 "/><path style=" stroke:none;fill-rule:nonzero;fill:#256133;fill-opacity:1;" d="M 217.84375 266.902344 C 217.84375 266.902344 224.0625 265.847656 231.042969 264.632812 L 231.042969 137.542969 C 217.269531 152.238281 203.4375 164.058594 190.097656 173.566406 L 190.097656 273.738281 L 197.058594 273.238281 L 217.84375 266.902344 "/><path style=" stroke:none;fill-rule:nonzero;fill:#256133;fill-opacity:1;" d="M 334.339844 207.992188 C 332.472656 198.726562 320.074219 192.316406 300.722656 189.035156 L 292.378906 188.109375 L 292.25 188.308594 C 292.25 188.308594 344.148438 201.199219 305.457031 225.730469 C 296.480469 231.765625 279.03125 241.929688 251.398438 251.773438 C 251.398438 251.773438 251.367188 251.785156 251.316406 251.804688 L 233.039062 257.769531 C 222.589844 260.886719 211.015625 263.867188 198.246094 266.558594 C 182.207031 269.933594 167.691406 272.097656 154.6875 273.410156 C 150.046875 274.089844 134.496094 274.871094 134.496094 274.871094 C 94.585938 276.519531 73.960938 269.816406 73.960938 269.816406 C 71.199219 269.046875 68.105469 267.925781 64.734375 266.1875 C 45.292969 256.183594 74.40625 234.132812 83.714844 227.65625 L 73.914062 233.128906 C 54.527344 244.484375 43.832031 256.21875 45.855469 266.285156 C 49.226562 283.066406 87 290.5 138.378906 286.917969 C 148.191406 285.839844 158.34375 284.722656 158.34375 284.722656 C 171.203125 283.222656 184.667969 281.105469 198.488281 278.332031 C 211.847656 275.644531 224.660156 272.511719 236.738281 269.070312 L 243.113281 267.101562 C 249.121094 265.800781 255.199219 263.371094 255.199219 263.371094 C 304.96875 246.75 337.753906 224.976562 334.339844 207.992188 "/><g clip-rule="nonzero" clip-path="url(#81b1953598)"><path style=" stroke:none;fill-rule:nonzero;fill:#256133;fill-opacity:1;" d="M 347.441406 208.296875 C 347.863281 209.320312 348.195312 210.371094 348.414062 211.453125 C 352.820312 233.375 313.425781 260.71875 254.484375 279.894531 C 254.484375 279.894531 246.183594 282.40625 237.394531 285.066406 C 226.058594 288.25 214.152344 291.125 201.824219 293.601562 C 190.546875 295.867188 179.480469 297.683594 168.730469 299.085938 C 168.730469 299.085938 160.574219 299.988281 151.3125 301.007812 C 94.238281 306.164062 49.265625 298.617188 37.5625 280.792969 C 41.761719 291.847656 54.425781 304.203125 88.082031 309.847656 C 111.183594 312.527344 133.210938 312.835938 153.757812 311.578125 C 162.550781 310.835938 171.105469 310.109375 171.105469 310.109375 C 196.386719 307.40625 219.027344 302.480469 238.152344 297.003906 C 255.523438 291.601562 255.523438 291.601562 255.523438 291.601562 C 282.773438 282.425781 300.027344 273.253906 303.570312 271.304688 C 358.179688 240.355469 355.679688 219.203125 347.441406 208.296875 "/></g><g clip-rule="nonzero" clip-path="url(#3832ab14f6)"><path style=" stroke:none;fill-rule:nonzero;fill:#256133;fill-opacity:1;" d="M 200.460938 62.691406 L 97.222656 82.46875 C 97.222656 82.46875 151.367188 167.671875 148.402344 218.105469 C 151.796875 157.019531 123.269531 93.234375 123.269531 93.234375 C 123.269531 93.234375 181.800781 80.730469 194.734375 79.117188 C 194.734375 79.117188 210.023438 94.140625 214.054688 132.570312 C 220.027344 98.671875 200.460938 62.691406 200.460938 62.691406 Z M 200.460938 62.691406 "/></g><g clip-rule="nonzero" clip-path="url(#9d21d6de83)"><path style=" stroke:none;fill-rule:nonzero;fill:#256133;fill-opacity:1;" d="M 148.402344 218.105469 C 146.917969 214.292969 144.972656 210.527344 142.660156 206.8125 C 119.734375 169.847656 60.527344 137.535156 60.527344 137.535156 L 104.988281 107.921875 C 106.625 110.84375 108.757812 114.109375 110.738281 117.816406 C 101.578125 124.246094 89.652344 132.585938 84.621094 138.050781 C 84.621094 138.050781 121.277344 162.433594 141.964844 203.355469 C 144.363281 208.050781 146.554688 212.972656 148.402344 218.105469 Z M 148.402344 218.105469 "/></g><g clip-rule="nonzero" clip-path="url(#2eaca97d0d)"><path style=" stroke:none;fill-rule:nonzero;fill:#256133;fill-opacity:1;" d="M 148.40625 218.097656 C 146.953125 216.421875 145.355469 214.804688 143.667969 213.253906 C 142.234375 211.949219 140.730469 210.660156 139.164062 209.4375 C 105.046875 182.460938 38.382812 172.183594 38.382812 172.183594 L 59.710938 143.964844 C 61.820312 145.175781 65.867188 147.207031 70.371094 150 C 65.90625 156.566406 63.082031 160 61.203125 164.457031 C 61.203125 164.457031 103.964844 174.972656 137.332031 206.417969 C 139.320312 208.261719 141.242188 210.183594 143.105469 212.175781 C 144.929688 214.0625 146.703125 216.042969 148.40625 218.097656 Z M 148.40625 218.097656 "/></g><g clip-rule="nonzero" clip-path="url(#24a55f6aa5)"><path style=" stroke:none;fill-rule:nonzero;fill:#256133;fill-opacity:1;" d="M 161.183594 112.21875 C 161.183594 109.355469 162.296875 107.160156 164.515625 105.640625 C 166.136719 104.539062 167.796875 103.984375 169.488281 103.984375 L 169.488281 121.230469 C 163.953125 118.882812 161.183594 115.878906 161.183594 112.21875 Z M 172.695312 132.761719 C 178.6875 135.015625 181.679688 138.316406 181.679688 142.65625 C 181.679688 145.363281 180.570312 147.535156 178.351562 149.167969 C 176.625 150.453125 174.738281 151.128906 172.695312 151.199219 Z M 161.394531 143.40625 C 162.410156 142.625 162.917969 141.574219 162.917969 140.253906 C 162.917969 137.679688 161.570312 136.394531 158.871094 136.394531 C 157.714844 136.394531 156.683594 136.8125 155.769531 137.640625 C 154.4375 138.855469 153.773438 140.636719 153.773438 142.992188 C 153.773438 146.699219 155.351562 149.675781 158.503906 151.925781 C 161.449219 154.074219 165.109375 155.144531 169.488281 155.144531 L 169.488281 160.859375 L 172.695312 160.859375 L 172.695312 154.886719 C 178.71875 154.125 183.066406 151.90625 185.726562 148.238281 C 187.585938 145.675781 188.511719 142.628906 188.511719 139.097656 C 188.511719 133.347656 185.167969 128.707031 178.476562 125.175781 C 176.023438 123.964844 174.09375 123.046875 172.695312 122.425781 L 172.695312 103.515625 C 174.632812 103.515625 176.449219 104.074219 178.140625 105.1875 C 179.835938 106.300781 180.683594 107.535156 180.683594 108.886719 C 180.683594 109.273438 180.332031 109.757812 179.632812 110.351562 C 178.929688 110.941406 178.578125 111.6875 178.578125 112.589844 C 178.578125 115.234375 179.769531 116.554688 182.152344 116.554688 C 185.234375 116.554688 186.777344 114.613281 186.777344 110.738281 C 186.777344 108.035156 185.527344 105.699219 183.027344 103.726562 C 180.320312 101.648438 176.875 100.609375 172.695312 100.609375 L 172.695312 95.101562 L 169.488281 95.101562 L 169.488281 100.609375 C 165.667969 100.710938 162.339844 102.097656 159.503906 104.765625 C 156.488281 107.570312 154.984375 110.980469 154.984375 114.996094 C 154.984375 119.359375 156.59375 122.890625 159.816406 125.59375 C 161.394531 126.910156 164.617188 128.761719 169.488281 131.148438 L 169.488281 151.457031 C 167.339844 151.5625 165.226562 151.039062 163.148438 149.894531 C 160.960938 148.644531 159.871094 147.203125 159.871094 145.570312 C 159.871094 144.910156 160.378906 144.1875 161.394531 143.40625 "/></g></g></svg>