<svg xmlns="http://www.w3.org/2000/svg" xmlns:xlink="http://www.w3.org/1999/xlink" width="500" zoomAndPan="magnify" viewBox="0 0 375 374.999991" height="500" preserveAspectRatio="xMidYMid meet" version="1.0"><defs><g/><clipPath id="79e703ed9a"><path d="M 58 105.371094 L 331 105.371094 L 331 187.871094 L 58 187.871094 Z M 58 105.371094 " clip-rule="nonzero"/></clipPath><clipPath id="515f600209"><path d="M 180.519531 243.515625 L 194.5 243.515625 L 194.5 256.816406 L 180.519531 256.816406 Z M 180.519531 243.515625 " clip-rule="nonzero"/></clipPath><clipPath id="95ac651c05"><path d="M 187.5 243.515625 L 189.148438 248.597656 L 194.480469 248.597656 L 190.164062 251.738281 L 191.8125 256.816406 L 187.5 253.675781 L 183.1875 256.816406 L 184.835938 251.738281 L 180.519531 248.597656 L 185.851562 248.597656 Z M 187.5 243.515625 " clip-rule="nonzero"/></clipPath><clipPath id="929e5479a5"><path d="M 162.222656 243.515625 L 173.574219 243.515625 L 173.574219 254.320312 L 162.222656 254.320312 Z M 162.222656 243.515625 " clip-rule="nonzero"/></clipPath><clipPath id="9b92746cf7"><path d="M 167.890625 243.515625 L 169.226562 247.640625 L 173.558594 247.640625 L 170.054688 250.191406 L 171.394531 254.320312 L 167.890625 251.769531 L 164.386719 254.320312 L 165.722656 250.191406 L 162.222656 247.640625 L 166.550781 247.640625 Z M 167.890625 243.515625 " clip-rule="nonzero"/></clipPath><clipPath id="1687a3f683"><path d="M 201.230469 243.515625 L 212.582031 243.515625 L 212.582031 254.320312 L 201.230469 254.320312 Z M 201.230469 243.515625 " clip-rule="nonzero"/></clipPath><clipPath id="0af0f7dba1"><path d="M 206.898438 243.515625 L 208.234375 247.640625 L 212.566406 247.640625 L 209.0625 250.191406 L 210.402344 254.320312 L 206.898438 251.769531 L 203.394531 254.320312 L 204.730469 250.191406 L 201.230469 247.640625 L 205.558594 247.640625 Z M 206.898438 243.515625 " clip-rule="nonzero"/></clipPath></defs><g clip-path="url(#79e703ed9a)"><path fill="#ffffff" d="M 282.082031 184.34375 C 290.605469 184.800781 299.140625 184.863281 307.980469 185.652344 C 306.867188 186.273438 305.953125 186.199219 305.074219 186.222656 C 280.460938 187.0625 255.835938 187.484375 231.199219 187.460938 C 192.089844 187.421875 152.984375 187.507812 113.863281 187.335938 C 97.066406 187.261719 80.269531 186.925781 63.488281 186.257812 C 62.90625 186.234375 62.289062 186.332031 61.78125 185.851562 C 70.277344 185.144531 78.773438 184.714844 87.296875 184.601562 C 87.371094 184.019531 86.863281 184.121094 86.589844 183.984375 C 82.695312 182.191406 79.613281 179.457031 77.300781 175.871094 C 76.855469 175.175781 76.3125 174.769531 75.546875 174.496094 C 71.527344 173.074219 67.605469 171.394531 63.785156 169.476562 C 63.054688 169.105469 62.3125 168.734375 61.632812 168.289062 C 60.65625 167.65625 59.34375 167.136719 59.378906 165.765625 C 59.429688 164.34375 60.863281 164.207031 61.867188 163.800781 C 63.191406 163.253906 63.414062 162.425781 62.78125 161.238281 C 62.289062 160.335938 61.792969 159.433594 61.273438 158.554688 C 57.921875 152.878906 57.972656 147.027344 60.382812 141.066406 C 61.285156 138.816406 62.335938 136.636719 63.671875 134.621094 C 64.214844 133.804688 64.289062 133.175781 63.546875 132.496094 C 63.25 132.222656 63.03125 131.863281 62.78125 131.53125 C 60.714844 128.722656 61.667969 125.925781 65.046875 125.011719 C 67.582031 124.332031 70.214844 124.132812 72.8125 123.773438 C 81.59375 122.5625 90.4375 122.128906 99.28125 121.671875 C 100.765625 121.597656 102.074219 121.003906 103.398438 120.484375 C 115.65625 115.636719 128.125 111.507812 140.960938 108.464844 C 151.25 106.027344 161.578125 105.359375 172.078125 106.347656 C 180.328125 107.128906 188.578125 107.871094 196.582031 110.171875 C 203.976562 112.296875 210.804688 115.808594 217.742188 119.050781 C 224.730469 122.316406 231.609375 125.816406 238.375 129.515625 C 239.089844 129.910156 239.796875 130.007812 240.585938 129.984375 C 249.863281 129.722656 259.140625 129.539062 268.402344 129.945312 C 281.933594 130.539062 295.242188 132.371094 307.847656 137.703125 C 314.613281 140.570312 320.90625 144.230469 326.421875 149.140625 C 327.339844 149.957031 328.253906 150.8125 329.082031 151.726562 C 330.664062 153.484375 331.097656 155.523438 330.183594 157.75 C 329.578125 159.222656 328.859375 160.644531 328.214844 162.09375 C 326.644531 165.59375 326.164062 168.945312 329.082031 172.121094 C 330.40625 173.570312 329.960938 175.089844 328.117188 176.203125 C 325.964844 177.492188 323.527344 177.984375 321.117188 178.480469 C 315.5 179.644531 309.800781 180.027344 304.085938 180.308594 C 299.460938 180.546875 294.820312 180.605469 290.183594 180.71875 C 289.121094 180.742188 288.207031 180.976562 287.316406 181.609375 C 285.71875 182.746094 283.875 183.441406 282.058594 184.332031 Z M 201.46875 131.617188 C 203.285156 134.621094 203.890625 137.738281 204.484375 140.855469 C 204.644531 141.683594 205.003906 142.054688 205.757812 142.339844 C 210.84375 144.21875 214.503906 147.660156 216.667969 152.644531 C 218.410156 156.664062 219.660156 160.855469 220.921875 165.035156 C 221.144531 165.800781 221.441406 166.148438 222.269531 166.148438 C 225.3125 166.148438 228.355469 166.1875 231.386719 166.285156 C 232.3125 166.308594 232.511719 165.949219 232.472656 165.109375 C 232.414062 163.726562 232.511719 162.339844 232.683594 160.953125 C 233.96875 150.835938 239.363281 143.886719 248.984375 140.621094 C 258.507812 137.378906 267.054688 139.71875 274.042969 146.792969 C 280.4375 153.273438 282.070312 161.398438 280.820312 170.21875 C 280.425781 173.011719 279.511719 175.683594 278.484375 178.417969 C 278.878906 178.457031 279.125 178.492188 279.375 178.492188 C 285.769531 178.566406 292.152344 178.382812 298.53125 178.097656 C 302.898438 177.910156 307.265625 177.515625 311.605469 176.882812 C 312.199219 176.796875 313.226562 176.945312 312.941406 175.722656 C 312.71875 174.769531 313.152344 173.457031 311.382812 173.484375 C 309.378906 173.507812 307.363281 173.359375 305.359375 173.234375 C 303.617188 173.125 301.882812 172.914062 300.277344 172.097656 C 298.308594 171.097656 297.753906 169.984375 298.136719 167.84375 C 298.398438 166.371094 298.878906 164.960938 299.386719 163.5625 C 300.980469 159.085938 304.210938 157.007812 308.886719 156.835938 C 313.574219 156.664062 318.261719 156.859375 322.949219 156.886719 C 323.453125 156.886719 324.0625 156.761719 324.457031 157.355469 C 323.75 157.664062 323.035156 157.726562 322.316406 157.777344 C 318.210938 158.046875 314.09375 158.207031 309.996094 158.691406 C 305.199219 159.257812 300.289062 164.492188 300.164062 169.316406 C 300.152344 169.996094 300.523438 170.328125 301.054688 170.601562 C 301.773438 170.972656 301.996094 170.414062 302.230469 169.996094 C 303.132812 168.386719 303.960938 166.730469 304.890625 165.121094 C 306.003906 163.191406 307.625 162.03125 309.910156 161.707031 C 313.683594 161.175781 317.492188 160.929688 321.277344 160.609375 C 325.53125 160.25 324.804688 160.804688 326.375 156.5 C 326.421875 156.351562 326.421875 156.191406 326.472656 156.042969 C 327.003906 154.535156 326.523438 153.324219 325.359375 152.320312 C 323.765625 150.9375 322.230469 149.476562 320.558594 148.191406 C 311.644531 141.339844 301.464844 137.230469 290.628906 134.574219 C 288.710938 134.101562 286.769531 133.71875 284.828125 133.300781 C 286.484375 134.113281 288.191406 134.660156 289.875 135.253906 C 298.324219 138.222656 305.976562 142.511719 312.335938 148.90625 C 313.324219 149.910156 314.265625 150.984375 314.808594 152.59375 C 314.003906 151.839844 313.398438 151.234375 312.757812 150.675781 C 306.867188 145.566406 300.128906 141.859375 292.96875 138.902344 C 280.894531 133.917969 268.21875 132.160156 255.28125 131.875 C 238.746094 131.519531 222.207031 131.371094 205.660156 131.617188 C 204.335938 131.640625 203.011719 131.617188 201.453125 131.617188 Z M 72.144531 164.9375 C 72.242188 162.277344 72.378906 160.039062 72.886719 157.835938 C 76.324219 142.710938 94.285156 135.414062 106.863281 144.21875 C 114.691406 149.699219 118.019531 157.726562 118.304688 167.078125 C 118.351562 168.621094 118.796875 168.894531 120.21875 168.917969 C 131.550781 169.117188 142.878906 169.378906 154.21875 169.660156 C 166.886719 169.984375 179.5625 170.464844 192.238281 170.441406 C 194.355469 170.441406 196.457031 170.265625 198.546875 169.921875 C 199.09375 169.835938 199.871094 169.820312 199.835938 169.128906 C 199.796875 168.535156 199.066406 168.414062 198.5 168.289062 C 195.269531 167.597656 191.980469 167.335938 188.691406 167.152344 C 174.394531 166.347656 160.09375 165.652344 145.796875 164.863281 C 142.308594 164.664062 138.773438 164.738281 135.359375 163.859375 C 126.847656 161.648438 121.65625 152.246094 120.863281 146.679688 C 120.480469 144.023438 121.34375 142.539062 123.746094 141.289062 C 124.710938 140.792969 125.722656 140.433594 126.773438 140.175781 C 129.175781 139.570312 131.625 139.1875 134.085938 139.039062 C 135.285156 138.964844 135.496094 138.480469 135.542969 137.46875 C 135.703125 134.335938 135.628906 131.171875 136.175781 128.066406 C 136.359375 127.015625 136.199219 126.667969 135.085938 126.460938 C 124.476562 124.492188 113.765625 123.613281 102.992188 123.527344 C 93.863281 123.453125 84.785156 124.320312 75.769531 125.691406 C 72.777344 126.148438 69.78125 126.65625 66.8125 127.277344 C 64.871094 127.683594 64.464844 128.4375 65.378906 129.921875 C 66.726562 132.113281 66.914062 134.449219 66.789062 136.910156 C 66.605469 140.792969 65.121094 144.292969 63.574219 147.78125 C 63.042969 148.980469 62.597656 150.207031 62.855469 151.515625 C 63.957031 157.207031 67.777344 161.015625 72.167969 164.949219 Z M 164.96875 154.3125 C 164.96875 154.226562 164.96875 154.140625 164.980469 154.050781 C 165.179688 154.027344 165.375 153.992188 165.574219 153.992188 C 172.835938 154.175781 180.082031 154.71875 187.328125 155.203125 C 192.882812 155.574219 198.425781 156.070312 203.964844 156.527344 C 204.757812 156.589844 205.238281 156.527344 205.152344 155.511719 C 204.929688 152.839844 204.78125 150.167969 204.609375 147.496094 C 204.546875 146.546875 204.003906 146.050781 203.171875 145.679688 C 200.726562 144.578125 198.164062 143.824219 195.554688 143.269531 C 187.738281 141.609375 179.796875 140.917969 171.832031 140.375 C 160.539062 139.59375 149.296875 139.753906 138.105469 141.660156 C 136.867188 141.871094 136.757812 142.203125 137.101562 143.316406 C 139.339844 150.527344 143.570312 156.589844 148.011719 162.550781 C 148.59375 163.339844 149.382812 163.316406 150.214844 163.339844 C 167.15625 163.773438 184.101562 164.230469 201.046875 164.664062 C 202.269531 164.703125 203.839844 165.332031 204.621094 164.601562 C 205.472656 163.800781 204.804688 162.152344 205.027344 160.890625 C 205.191406 159.988281 204.804688 159.617188 203.929688 159.46875 C 196.976562 158.332031 189.988281 157.40625 183 156.5625 C 176.988281 155.832031 170.980469 155.066406 164.96875 154.324219 Z M 203.753906 141.660156 C 203.160156 138.554688 202.578125 135.660156 201.269531 132.941406 C 200.800781 131.964844 200.15625 131.667969 199.078125 131.691406 C 195.269531 131.753906 191.460938 131.742188 187.640625 131.703125 C 171.042969 131.566406 154.492188 130.910156 138.265625 127.003906 C 137.226562 126.757812 136.980469 127.164062 136.929688 128.03125 C 136.757812 130.703125 136.507812 133.375 136.410156 136.042969 C 136.296875 139.148438 135.839844 138.617188 139.058594 138.640625 C 139.875 138.640625 140.316406 138.492188 140.503906 137.542969 C 141.058594 134.574219 141.863281 133.769531 144.859375 133.496094 C 148.53125 133.164062 151.3125 134.101562 151.785156 137.035156 C 151.980469 138.234375 152.585938 138.433594 153.652344 138.40625 C 160.714844 138.210938 167.761719 138.457031 174.824219 138.691406 C 184.4375 139.011719 194.070312 139.308594 203.765625 141.660156 Z M 121 184.554688 L 247.996094 184.554688 C 246.238281 183.441406 244.558594 182.351562 243.011719 181.066406 C 242.515625 180.65625 241.984375 180.679688 241.417969 180.679688 C 204.421875 180.753906 167.429688 180.546875 130.421875 180.113281 C 129.964844 180.113281 129.496094 180.027344 129.089844 180.335938 C 126.664062 182.078125 123.90625 183.21875 121 184.566406 Z M 235.109375 176.847656 C 234.984375 175.757812 234.453125 175.015625 232.855469 174.96875 C 227.355469 174.792969 221.851562 174.460938 216.347656 174.175781 C 207.550781 173.730469 198.746094 173.296875 189.953125 172.839844 C 176.890625 172.160156 163.816406 171.453125 150.757812 170.773438 C 144.84375 170.464844 138.921875 170.207031 133.007812 169.933594 C 128.480469 169.722656 123.957031 169.527344 119.429688 169.316406 C 118.882812 169.289062 118.304688 169.117188 118.214844 170.019531 C 117.96875 172.582031 117.425781 175.078125 116.523438 177.714844 C 121.492188 177.550781 126.269531 177.402344 131.042969 177.230469 C 131.574219 177.21875 132.054688 176.984375 132.414062 176.613281 C 134.183594 174.792969 136.347656 174.496094 138.785156 174.570312 C 155.519531 175.117188 172.253906 175.5625 188.988281 176.042969 C 198.363281 176.316406 207.726562 176.648438 217.101562 176.835938 C 223.074219 176.957031 229.035156 176.859375 235.082031 176.859375 Z M 200.117188 130.6875 C 199.796875 130.242188 199.734375 130.109375 199.625 130.007812 C 193.15625 124.097656 186.390625 118.566406 178.832031 114.078125 C 174.320312 111.394531 169.605469 109.367188 164.3125 108.871094 C 157.832031 108.265625 151.449219 108.957031 145.140625 110.320312 C 133.40625 112.855469 122.175781 116.972656 111.003906 121.253906 C 110.757812 121.351562 110.335938 121.289062 110.410156 121.847656 C 115.816406 121.796875 121.210938 122.03125 126.550781 122.859375 C 129.238281 123.269531 131.90625 123.863281 134.59375 124.292969 C 135.011719 124.355469 135.941406 125.035156 135.964844 123.875 C 136.027344 121.722656 135.976562 119.570312 135.976562 117.292969 C 131.066406 118.234375 126.292969 119.148438 121.53125 120.066406 C 121.53125 119.84375 121.582031 119.792969 121.617188 119.792969 C 131.894531 117.292969 142.171875 114.769531 152.613281 112.976562 C 160.464844 111.628906 167.972656 112.359375 175.035156 116.316406 C 181.628906 120.015625 187.539062 124.628906 193.230469 129.550781 C 193.796875 130.046875 194.304688 130.6875 195.183594 130.6875 C 196.71875 130.6875 198.25 130.6875 200.105469 130.6875 Z M 147.230469 162.910156 C 142.667969 156.613281 138.289062 150.417969 136.175781 142.945312 C 135.964844 142.214844 135.554688 142.105469 134.925781 142.339844 C 133.28125 142.933594 131.625 143.464844 130.152344 144.429688 C 128 145.828125 127.53125 147.050781 128.097656 149.511719 C 130.261719 158.863281 137.460938 163.949219 147.230469 162.894531 Z M 256.828125 179.851562 C 265.707031 180 273.375 172.457031 273.523438 163.453125 C 273.671875 154.140625 266.3125 146.175781 257.445312 146.0625 C 248.253906 145.953125 240.808594 153.410156 240.675781 162.871094 C 240.539062 172.210938 247.664062 179.703125 256.816406 179.851562 Z M 111.242188 163.503906 C 111.328125 162.539062 111.105469 161.425781 110.90625 160.3125 C 109.25 151.171875 100.53125 145.183594 91.933594 147.273438 C 85.292969 148.882812 80.714844 154.449219 79.835938 161.992188 C 78.726562 171.453125 86.40625 180.113281 95.828125 180.027344 C 104.179688 179.953125 111.214844 172.492188 111.253906 163.503906 Z M 227.03125 167.0625 L 227.03125 167.027344 C 225.535156 167.027344 224.050781 167.050781 222.554688 167.027344 C 221.835938 167.015625 221.480469 167.113281 221.789062 167.96875 C 222.234375 169.230469 222.566406 170.515625 222.976562 171.789062 C 223.109375 172.210938 223.210938 172.617188 223.851562 172.65625 C 226.882812 172.816406 229.914062 173.027344 232.929688 173.261719 C 233.671875 173.324219 233.808594 173.0625 233.660156 172.394531 C 233.339844 170.996094 232.96875 169.597656 232.757812 168.191406 C 232.621094 167.25 232.214844 167.015625 231.335938 167.050781 C 229.902344 167.113281 228.453125 167.0625 227.007812 167.0625 Z M 168.703125 108.4375 C 171.535156 109.328125 173.972656 110.230469 176.234375 111.480469 C 177.730469 112.296875 179.15625 112.632812 180.886719 112.371094 C 184.511719 111.839844 188.183594 111.777344 192.066406 111.679688 C 188.8125 110.246094 173.007812 108.042969 168.703125 108.449219 Z M 212.5625 157.554688 C 211.632812 153.3125 207.859375 147.917969 205.277344 147.089844 C 205.796875 149.847656 205.859375 152.617188 205.945312 155.402344 C 205.957031 155.933594 205.808594 156.648438 206.585938 156.773438 C 208.554688 157.070312 210.53125 157.304688 212.546875 157.566406 Z M 216.171875 165.492188 C 216.085938 164.554688 215.542969 164.058594 215.023438 163.601562 C 212.585938 161.449219 209.492188 160.832031 206.488281 160.015625 C 206.328125 159.976562 206.09375 160.039062 205.957031 160.148438 C 205.785156 160.273438 205.820312 164.554688 205.96875 164.703125 C 206.265625 164.984375 206.648438 164.875 206.996094 164.898438 C 208.378906 164.984375 209.753906 165.035156 211.140625 165.121094 C 212.796875 165.234375 214.464844 165.371094 216.171875 165.492188 Z M 314.425781 173.222656 C 315.539062 176.242188 315.898438 176.488281 318.65625 175.917969 C 320.660156 175.511719 322.636719 174.992188 324.617188 174.496094 C 325.050781 174.386719 325.816406 174.484375 325.707031 173.769531 C 325.617188 173.175781 324.953125 173.210938 324.433594 173.210938 C 321.152344 173.210938 317.875 173.210938 314.425781 173.210938 Z M 324.457031 171.726562 C 324.296875 170.652344 323.777344 170.429688 322.996094 170.441406 C 319.917969 170.503906 316.835938 170.527344 313.757812 170.601562 C 313.363281 170.601562 312.707031 170.355469 312.609375 170.960938 C 312.535156 171.40625 313.054688 171.726562 313.375 172.035156 C 313.671875 172.320312 314.03125 172.308594 314.390625 172.285156 C 317.714844 172.097656 321.042969 171.914062 324.457031 171.714844 Z M 141.28125 137.714844 C 143.820312 134.277344 149.136719 134.757812 151.027344 137.839844 C 150.78125 135.4375 149.558594 134.363281 146.949219 134.238281 C 143.078125 134.054688 141.863281 134.746094 141.28125 137.714844 Z M 141.28125 137.714844 " fill-opacity="1" fill-rule="nonzero"/></g><path fill="#ffffff" d="M 302.949219 151.183594 C 297.492188 151.28125 292.695312 149.328125 288.144531 146.570312 C 284.667969 144.46875 281.328125 142.167969 278.039062 139.78125 C 277.570312 139.433594 276.828125 139.097656 277.109375 138.371094 C 277.359375 137.738281 278.089844 137.9375 278.632812 137.949219 C 289.070312 138.234375 298.25 141.917969 306.347656 148.414062 C 307.015625 148.945312 308.21875 149.425781 307.785156 150.515625 C 307.414062 151.457031 306.261719 151.132812 305.421875 151.171875 C 304.605469 151.21875 303.777344 151.171875 302.949219 151.171875 Z M 306.398438 149.824219 C 305.039062 148.683594 303.703125 148.078125 302.144531 147.867188 C 297.777344 147.289062 293.621094 146.359375 290.183594 143.179688 C 287.140625 140.375 283.355469 139 278.816406 139.125 C 287.425781 144.46875 295.265625 150.921875 306.410156 149.824219 Z M 306.398438 149.824219 " fill-opacity="1" fill-rule="nonzero"/><path fill="#ffffff" d="M 224.386719 146.050781 C 227.625 146.050781 231.152344 145.988281 234.664062 146.085938 C 236.097656 146.125 237.148438 145.765625 238.238281 144.777344 C 251.273438 133.027344 271.222656 136.09375 279.769531 151.109375 C 281.996094 155.03125 283.121094 159.941406 282.6875 164.257812 C 282.109375 162.488281 282.257812 160.84375 281.984375 159.273438 C 279.808594 146.855469 268.328125 137.652344 255.703125 138.222656 C 248.875 138.53125 243.023438 141.128906 238.089844 145.789062 C 237.148438 146.679688 236.222656 147.078125 234.933594 146.964844 C 231.855469 146.695312 228.777344 146.53125 225.695312 146.308594 C 225.152344 146.273438 224.609375 146.113281 224.371094 146.0625 Z M 224.386719 146.050781 " fill-opacity="1" fill-rule="nonzero"/><path fill="#ffffff" d="M 68.855469 129.515625 C 85.800781 125.40625 102.890625 124.605469 120.144531 127.484375 C 119.242188 128.683594 117.957031 128.597656 116.792969 128.699219 C 112.726562 129.054688 108.667969 128.699219 104.625 128.300781 C 97.734375 127.609375 90.84375 127.734375 83.957031 128.277344 C 79.292969 128.648438 74.644531 129.144531 70.015625 129.910156 C 69.644531 129.972656 69.25 129.910156 68.867188 129.910156 C 68.867188 129.773438 68.867188 129.636719 68.867188 129.5 Z M 68.855469 129.515625 " fill-opacity="1" fill-rule="nonzero"/><path fill="#ffffff" d="M 75.175781 149.304688 C 80.085938 142.042969 87.074219 138.519531 95.695312 138.789062 C 105.203125 139.097656 113.875 145.269531 117.003906 153.398438 C 112.339844 146.027344 106.492188 140.261719 97.265625 139.496094 C 88.148438 138.742188 80.777344 142.09375 75.175781 149.316406 Z M 75.175781 149.304688 " fill-opacity="1" fill-rule="nonzero"/><path fill="#ffffff" d="M 242.628906 163.230469 C 242.628906 154.695312 249.492188 147.398438 257.507812 147.375 C 265.335938 147.347656 272.199219 154.585938 272.199219 162.847656 C 272.199219 171.515625 265.261719 178.789062 257.023438 178.714844 C 249.160156 178.652344 242.617188 171.617188 242.628906 163.21875 Z M 260.042969 163.453125 C 260.042969 161.945312 258.683594 160.59375 257.199219 160.621094 C 256.011719 160.644531 254.699219 162.066406 254.710938 163.304688 C 254.738281 164.789062 255.886719 165.964844 257.320312 165.949219 C 258.890625 165.949219 260.03125 164.886719 260.042969 163.441406 Z M 267.5625 161.929688 C 264.113281 164.835938 263.742188 166.558594 265.769531 168.933594 C 266.339844 166.730469 266.894531 164.527344 267.5625 161.929688 Z M 259.460938 167.285156 C 259.410156 167.597656 259.3125 167.78125 259.363281 167.894531 C 260.5625 170.578125 262.355469 172.902344 263.914062 175.363281 C 264.0625 175.609375 264.273438 175.746094 264.53125 175.523438 C 264.78125 175.3125 264.679688 175.054688 264.53125 174.832031 C 263.839844 173.753906 263.183594 172.65625 262.417969 171.628906 C 261.402344 170.265625 260.796875 168.597656 259.449219 167.300781 Z M 261.378906 161.894531 C 261.910156 162.375 262.171875 162.242188 262.378906 162.140625 C 264.878906 161.078125 267.378906 160 269.875 158.914062 C 270.0625 158.839844 270.269531 158.726562 270.371094 158.566406 C 270.457031 158.429688 270.40625 158.183594 270.371094 158.011719 C 270.371094 157.960938 270.097656 157.925781 270 157.972656 C 267.179688 159.246094 264.359375 160.535156 261.390625 161.894531 Z M 257.902344 158.925781 C 258.101562 155.699219 258.210938 152.46875 257.496094 149.277344 C 257.050781 152.519531 257.496094 155.722656 257.902344 158.925781 Z M 265.769531 174.621094 C 264.421875 171.714844 262.824219 168.957031 260.625 166.582031 C 261.910156 169.527344 263.828125 172.074219 265.769531 174.621094 Z M 248.328125 174.289062 C 248.492188 174.398438 248.652344 174.511719 248.800781 174.609375 C 250.816406 172.183594 252.460938 169.527344 254.007812 166.792969 C 253.859375 166.691406 253.710938 166.59375 253.574219 166.496094 C 251.832031 169.09375 250.074219 171.691406 248.328125 174.289062 Z M 245.214844 159.050781 C 244.902344 159.0625 244.605469 158.988281 244.53125 159.332031 C 244.472656 159.667969 244.78125 159.753906 244.992188 159.839844 C 247.328125 160.71875 249.664062 161.574219 252.003906 162.414062 C 252.25 162.5 252.621094 162.761719 252.78125 162.328125 C 252.945312 161.917969 252.574219 161.832031 252.289062 161.722656 C 251.101562 161.277344 249.902344 160.832031 248.714844 160.371094 C 247.527344 159.925781 246.339844 159.457031 245.199219 159.023438 Z M 249.726562 175.25 C 250.582031 175.25 250.839844 174.695312 251.148438 174.226562 C 252.214844 172.59375 253.300781 170.984375 254.265625 169.304688 C 254.574219 168.757812 255.613281 168.042969 255.019531 167.644531 C 254.242188 167.125 254.082031 168.414062 253.757812 168.882812 C 252.335938 170.960938 251.0625 173.125 249.726562 175.25 Z M 253.773438 160.917969 C 250.816406 159.433594 247.996094 158.742188 245.363281 157.589844 C 245.152344 157.492188 244.929688 157.527344 244.867188 157.761719 C 244.769531 158.195312 245.152344 158.246094 245.410156 158.34375 C 247.367188 159.097656 249.320312 159.851562 251.296875 160.570312 C 251.941406 160.804688 252.546875 161.25 253.773438 160.917969 Z M 269.972656 156.910156 C 269.886719 156.738281 269.8125 156.574219 269.726562 156.402344 C 266.785156 157.554688 263.925781 158.890625 261.207031 160.519531 C 261.265625 160.65625 261.339844 160.792969 261.402344 160.929688 C 264.261719 159.59375 267.117188 158.246094 269.960938 156.910156 Z M 256.445312 159.273438 L 256.445312 149.316406 C 256.246094 149.316406 256.046875 149.339844 255.851562 149.351562 C 256.046875 152.53125 255.75 155.734375 256.445312 159.273438 Z M 256.445312 159.273438 " fill-opacity="1" fill-rule="nonzero"/><path fill="#ffffff" d="M 81.804688 163.515625 C 82.015625 158.800781 83.597656 154.683594 87.234375 151.53125 C 92.441406 147.003906 98.761719 146.929688 104.128906 151.246094 C 111.613281 157.28125 112.105469 168.859375 104.871094 175.164062 C 95.472656 183.378906 85.304688 176.847656 82.558594 168.535156 C 82.027344 166.914062 81.742188 165.234375 81.804688 163.503906 Z M 95.273438 166.445312 C 96.632812 166.46875 97.894531 165.28125 97.921875 163.949219 C 97.945312 162.539062 96.71875 161.238281 95.324219 161.1875 C 94 161.140625 92.8125 162.339844 92.761719 163.761719 C 92.726562 165 94.0625 166.421875 95.273438 166.445312 Z M 97.746094 167.757812 C 97.203125 167.96875 97.042969 168.066406 97.3125 168.488281 C 98.8125 170.8125 100.246094 173.175781 101.71875 175.511719 C 101.867188 175.746094 102.027344 176.15625 102.398438 175.90625 C 102.757812 175.671875 102.472656 175.363281 102.324219 175.117188 C 100.949219 172.890625 99.578125 170.664062 98.203125 168.449219 C 98.042969 168.191406 97.871094 167.941406 97.746094 167.757812 Z M 99.675781 162.660156 C 99.835938 162.699219 99.996094 162.796875 100.121094 162.761719 C 102.742188 161.757812 105.351562 160.730469 107.976562 159.71875 C 108.285156 159.59375 108.570312 159.40625 108.335938 159.050781 C 108.097656 158.691406 107.777344 158.964844 107.519531 159.074219 C 105.339844 159.964844 103.164062 160.855469 101 161.769531 C 100.515625 161.96875 99.847656 161.945312 99.675781 162.671875 Z M 103.398438 175.226562 C 103.523438 175.140625 103.632812 175.066406 103.757812 174.980469 C 103.3125 173.496094 99.75 167.980469 98.378906 167.335938 Z M 95.78125 150.070312 C 95.347656 153.238281 95.632812 156.378906 96.152344 159.507812 C 96.496094 156.339844 96.1875 153.199219 95.78125 150.070312 Z M 83.375 159.925781 C 85.8125 160.792969 88.113281 161.621094 90.425781 162.390625 C 90.695312 162.476562 91.179688 163.042969 91.425781 162.351562 C 91.636719 161.746094 91.03125 161.722656 90.695312 161.597656 C 88.769531 160.941406 86.839844 160.285156 84.894531 159.691406 C 84.5 159.570312 84.019531 159.335938 83.386719 159.925781 Z M 88.410156 175.546875 C 90.414062 173.679688 93.269531 168.746094 93.011719 167.597656 C 91.425781 170.15625 89.757812 172.492188 88.410156 175.546875 Z M 94.417969 159.433594 C 94.507812 159.433594 94.59375 159.421875 94.667969 159.40625 L 94.667969 149.945312 C 94.582031 149.945312 94.492188 149.972656 94.417969 149.984375 L 94.417969 159.445312 Z M 107.875 157.8125 C 107.800781 157.640625 107.726562 157.453125 107.652344 157.28125 C 104.859375 158.492188 102.074219 159.691406 99.28125 160.90625 C 99.34375 161.054688 99.402344 161.1875 99.464844 161.335938 C 102.359375 160.386719 105.167969 159.199219 107.875 157.824219 Z M 91.761719 161.003906 C 88.621094 159.136719 84.746094 158.011719 83.757812 158.605469 C 86.515625 159.347656 89.015625 160.59375 91.761719 161.003906 Z M 92.144531 167.3125 C 91.191406 167.375 91.042969 168.089844 90.695312 168.609375 C 89.632812 170.242188 88.632812 171.898438 87.605469 173.558594 C 87.445312 173.816406 87.257812 174.140625 87.554688 174.386719 C 87.816406 174.597656 88 174.347656 88.136719 174.113281 C 89.472656 171.851562 90.808594 169.574219 92.144531 167.3125 Z M 92.144531 167.3125 " fill-opacity="1" fill-rule="nonzero"/><g fill="#ffffff" fill-opacity="1"><g transform="translate(84.571552, 218.217641)"><g><path d="M 20.640625 0 L 20.640625 -3.109375 L 5.84375 -3.109375 L 5.84375 -19.5625 L 2.734375 -19.5625 L 2.734375 0 Z M 20.640625 0 "/></g></g></g><g fill="#ffffff" fill-opacity="1"><g transform="translate(106.156767, 218.217641)"><g><path d="M 19.140625 0 C 20.859375 0 22.320312 -0.601562 23.53125 -1.8125 C 24.75 -3.03125 25.359375 -4.5 25.359375 -6.21875 L 25.359375 -13.359375 C 25.359375 -15.066406 24.75 -16.523438 23.53125 -17.734375 C 22.320312 -18.953125 20.859375 -19.5625 19.140625 -19.5625 L 8.265625 -19.5625 C 6.546875 -19.5625 5.078125 -18.953125 3.859375 -17.734375 C 2.648438 -16.523438 2.046875 -15.066406 2.046875 -13.359375 L 2.046875 -6.21875 C 2.046875 -4.5 2.648438 -3.03125 3.859375 -1.8125 C 5.078125 -0.601562 6.546875 0 8.265625 0 Z M 19.140625 -3.109375 L 8.265625 -3.109375 C 7.398438 -3.109375 6.664062 -3.410156 6.0625 -4.015625 C 5.457031 -4.617188 5.15625 -5.351562 5.15625 -6.21875 L 5.15625 -13.359375 C 5.15625 -14.210938 5.457031 -14.941406 6.0625 -15.546875 C 6.664062 -16.160156 7.398438 -16.46875 8.265625 -16.46875 L 19.140625 -16.46875 C 19.992188 -16.46875 20.722656 -16.160156 21.328125 -15.546875 C 21.941406 -14.941406 22.25 -14.210938 22.25 -13.359375 L 22.25 -6.21875 C 22.25 -5.351562 21.941406 -4.617188 21.328125 -4.015625 C 20.722656 -3.410156 19.992188 -3.109375 19.140625 -3.109375 Z M 19.140625 -3.109375 "/></g></g></g><g fill="#ffffff" fill-opacity="1"><g transform="translate(133.550763, 218.217641)"><g><path d="M 26.046875 0 L 22.9375 0 L 22.9375 -5.515625 C 22.9375 -5.941406 22.78125 -6.304688 22.46875 -6.609375 C 22.164062 -6.910156 21.800781 -7.0625 21.375 -7.0625 L 5.84375 -7.0625 L 5.84375 0 L 2.734375 0 L 2.734375 -19.5625 L 21.375 -19.5625 C 22.65625 -19.5625 23.753906 -19.101562 24.671875 -18.1875 C 25.585938 -17.28125 26.046875 -16.1875 26.046875 -14.90625 L 26.046875 -11.734375 C 26.046875 -10.535156 25.644531 -9.5 24.84375 -8.625 C 25.644531 -7.738281 26.046875 -6.703125 26.046875 -5.515625 Z M 21.375 -10.171875 C 21.800781 -10.171875 22.164062 -10.320312 22.46875 -10.625 C 22.78125 -10.9375 22.9375 -11.304688 22.9375 -11.734375 L 22.9375 -14.90625 C 22.9375 -15.332031 22.78125 -15.695312 22.46875 -16 C 22.164062 -16.3125 21.800781 -16.46875 21.375 -16.46875 L 5.84375 -16.46875 L 5.84375 -10.171875 Z M 21.375 -10.171875 "/></g></g></g><g fill="#ffffff" fill-opacity="1"><g transform="translate(161.62654, 218.217641)"><g><path d="M 24.484375 0 L 2.734375 0 L 2.734375 -19.5625 L 24.484375 -19.5625 L 24.484375 -16.46875 L 5.84375 -16.46875 L 5.84375 -11.34375 L 22.28125 -11.34375 L 22.28125 -8.21875 L 5.84375 -8.21875 L 5.84375 -3.109375 L 24.484375 -3.109375 Z M 24.484375 0 "/></g></g></g><g fill="#ffffff" fill-opacity="1"><g transform="translate(188.147854, 218.217641)"><g><path d="M 28.015625 0 L 26.0625 0 L 18.78125 -14.546875 L 11.5 0 L 9.5625 0 L 0.40625 -19.5625 L 3.828125 -19.5625 L 10.578125 -5.109375 L 17.828125 -19.5625 L 19.75 -19.5625 L 26.984375 -5.109375 L 33.75 -19.5625 L 37.1875 -19.5625 Z M 28.015625 0 "/></g></g></g><g fill="#ffffff" fill-opacity="1"><g transform="translate(225.727663, 218.217641)"><g><path d="M 28.53125 0 L 24.765625 0 L 21.890625 -4.25 L 7.03125 -4.25 L 4.15625 0 L 0.40625 0 L 13.640625 -19.5625 L 15.296875 -19.5625 Z M 19.796875 -7.359375 L 14.453125 -15.234375 L 9.125 -7.359375 Z M 19.796875 -7.359375 "/></g></g></g><g fill="#ffffff" fill-opacity="1"><g transform="translate(254.648849, 218.217641)"><g><path d="M 26.046875 0 L 22.9375 0 L 22.9375 -5.515625 C 22.9375 -5.941406 22.78125 -6.304688 22.46875 -6.609375 C 22.164062 -6.910156 21.800781 -7.0625 21.375 -7.0625 L 5.84375 -7.0625 L 5.84375 0 L 2.734375 0 L 2.734375 -19.5625 L 21.375 -19.5625 C 22.65625 -19.5625 23.753906 -19.101562 24.671875 -18.1875 C 25.585938 -17.28125 26.046875 -16.1875 26.046875 -14.90625 L 26.046875 -11.734375 C 26.046875 -10.535156 25.644531 -9.5 24.84375 -8.625 C 25.644531 -7.738281 26.046875 -6.703125 26.046875 -5.515625 Z M 21.375 -10.171875 C 21.800781 -10.171875 22.164062 -10.320312 22.46875 -10.625 C 22.78125 -10.9375 22.9375 -11.304688 22.9375 -11.734375 L 22.9375 -14.90625 C 22.9375 -15.332031 22.78125 -15.695312 22.46875 -16 C 22.164062 -16.3125 21.800781 -16.46875 21.375 -16.46875 L 5.84375 -16.46875 L 5.84375 -10.171875 Z M 21.375 -10.171875 "/></g></g></g><g fill="#ffffff" fill-opacity="1"><g transform="translate(282.724615, 218.217641)"><g><path d="M 12.375 0 L 9.265625 0 L 9.265625 -16.46875 L 0.40625 -16.46875 L 0.40625 -19.5625 L 21.234375 -19.5625 L 21.234375 -16.46875 L 12.375 -16.46875 Z M 12.375 0 "/></g></g></g><g fill="#ffffff" fill-opacity="1"><g transform="translate(146.258043, 238.320518)"><g><path d="M 10.140625 0 L 8.921875 0 L 8.921875 -2.140625 C 8.921875 -2.304688 8.863281 -2.445312 8.75 -2.5625 C 8.632812 -2.6875 8.492188 -2.75 8.328125 -2.75 L 2.265625 -2.75 L 2.265625 0 L 1.0625 0 L 1.0625 -7.609375 L 8.328125 -7.609375 C 8.816406 -7.609375 9.238281 -7.429688 9.59375 -7.078125 C 9.957031 -6.722656 10.140625 -6.296875 10.140625 -5.796875 L 10.140625 -4.5625 C 10.140625 -4.09375 9.984375 -3.691406 9.671875 -3.359375 C 9.984375 -3.015625 10.140625 -2.609375 10.140625 -2.140625 Z M 8.328125 -3.96875 C 8.492188 -3.96875 8.632812 -4.023438 8.75 -4.140625 C 8.863281 -4.253906 8.921875 -4.394531 8.921875 -4.5625 L 8.921875 -5.796875 C 8.921875 -5.960938 8.863281 -6.101562 8.75 -6.21875 C 8.632812 -6.34375 8.492188 -6.40625 8.328125 -6.40625 L 2.265625 -6.40625 L 2.265625 -3.96875 Z M 8.328125 -3.96875 "/></g></g></g><g fill="#ffffff" fill-opacity="1"><g transform="translate(158.607501, 238.320518)"><g><path d="M 9.53125 0 L 1.0625 0 L 1.0625 -7.609375 L 9.53125 -7.609375 L 9.53125 -6.40625 L 2.265625 -6.40625 L 2.265625 -4.40625 L 8.671875 -4.40625 L 8.671875 -3.203125 L 2.265625 -3.203125 L 2.265625 -1.203125 L 9.53125 -1.203125 Z M 9.53125 0 "/></g></g></g><g fill="#ffffff" fill-opacity="1"><g transform="translate(170.351579, 238.320518)"><g><path d="M 10.140625 0 L 9.3125 0 L 2.265625 -5.734375 L 2.265625 0 L 1.0625 0 L 1.0625 -7.609375 L 1.875 -7.609375 L 8.921875 -1.875 L 8.921875 -7.609375 L 10.140625 -7.609375 Z M 10.140625 0 "/></g></g></g><g fill="#ffffff" fill-opacity="1"><g transform="translate(182.966556, 238.320518)"><g><path d="M 4.8125 0 L 3.609375 0 L 3.609375 -6.40625 L 0.15625 -6.40625 L 0.15625 -7.609375 L 8.265625 -7.609375 L 8.265625 -6.40625 L 4.8125 -6.40625 Z M 4.8125 0 "/></g></g></g><g fill="#ffffff" fill-opacity="1"><g transform="translate(192.809526, 238.320518)"><g><path d="M 7.453125 0 C 8.117188 0 8.6875 -0.234375 9.15625 -0.703125 C 9.632812 -1.179688 9.875 -1.753906 9.875 -2.421875 L 8.65625 -2.421875 C 8.65625 -2.085938 8.535156 -1.800781 8.296875 -1.5625 C 8.066406 -1.320312 7.785156 -1.203125 7.453125 -1.203125 L 3.21875 -1.203125 C 2.882812 -1.203125 2.597656 -1.320312 2.359375 -1.5625 C 2.117188 -1.800781 2 -2.085938 2 -2.421875 L 2 -5.203125 C 2 -5.535156 2.117188 -5.816406 2.359375 -6.046875 C 2.597656 -6.285156 2.882812 -6.40625 3.21875 -6.40625 L 7.453125 -6.40625 C 7.785156 -6.40625 8.066406 -6.285156 8.296875 -6.046875 C 8.535156 -5.816406 8.65625 -5.535156 8.65625 -5.203125 L 9.875 -5.203125 C 9.875 -5.867188 9.632812 -6.4375 9.15625 -6.90625 C 8.6875 -7.375 8.117188 -7.609375 7.453125 -7.609375 L 3.21875 -7.609375 C 2.550781 -7.609375 1.976562 -7.375 1.5 -6.90625 C 1.03125 -6.4375 0.796875 -5.867188 0.796875 -5.203125 L 0.796875 -2.421875 C 0.796875 -1.753906 1.03125 -1.179688 1.5 -0.703125 C 1.976562 -0.234375 2.550781 0 3.21875 0 Z M 7.453125 0 "/></g></g></g><g fill="#ffffff" fill-opacity="1"><g transform="translate(204.893463, 238.320518)"><g><path d="M 11.109375 0 L 9.640625 0 L 8.515625 -1.65625 L 2.734375 -1.65625 L 1.625 0 L 0.15625 0 L 5.3125 -7.609375 L 5.953125 -7.609375 Z M 7.703125 -2.859375 L 5.625 -5.9375 L 3.546875 -2.859375 Z M 7.703125 -2.859375 "/></g></g></g><g fill="#ffffff" fill-opacity="1"><g transform="translate(217.572161, 238.320518)"><g><path d="M 10.140625 0 L 8.921875 0 L 8.921875 -2.140625 C 8.921875 -2.304688 8.863281 -2.445312 8.75 -2.5625 C 8.632812 -2.6875 8.492188 -2.75 8.328125 -2.75 L 2.265625 -2.75 L 2.265625 0 L 1.0625 0 L 1.0625 -7.609375 L 8.328125 -7.609375 C 8.816406 -7.609375 9.238281 -7.429688 9.59375 -7.078125 C 9.957031 -6.722656 10.140625 -6.296875 10.140625 -5.796875 L 10.140625 -4.5625 C 10.140625 -4.09375 9.984375 -3.691406 9.671875 -3.359375 C 9.984375 -3.015625 10.140625 -2.609375 10.140625 -2.140625 Z M 8.328125 -3.96875 C 8.492188 -3.96875 8.632812 -4.023438 8.75 -4.140625 C 8.863281 -4.253906 8.921875 -4.394531 8.921875 -4.5625 L 8.921875 -5.796875 C 8.921875 -5.960938 8.863281 -6.101562 8.75 -6.21875 C 8.632812 -6.34375 8.492188 -6.40625 8.328125 -6.40625 L 2.265625 -6.40625 L 2.265625 -3.96875 Z M 8.328125 -3.96875 "/></g></g></g><g clip-path="url(#515f600209)"><g clip-path="url(#95ac651c05)"><path fill="#ffffff" d="M 180.519531 243.515625 L 194.5 243.515625 L 194.5 256.816406 L 180.519531 256.816406 Z M 180.519531 243.515625 " fill-opacity="1" fill-rule="nonzero"/></g></g><g clip-path="url(#929e5479a5)"><g clip-path="url(#9b92746cf7)"><path fill="#ffffff" d="M 162.222656 243.515625 L 173.574219 243.515625 L 173.574219 254.320312 L 162.222656 254.320312 Z M 162.222656 243.515625 " fill-opacity="1" fill-rule="nonzero"/></g></g><g clip-path="url(#1687a3f683)"><g clip-path="url(#0af0f7dba1)"><path fill="#ffffff" d="M 201.230469 243.515625 L 212.582031 243.515625 L 212.582031 254.320312 L 201.230469 254.320312 Z M 201.230469 243.515625 " fill-opacity="1" fill-rule="nonzero"/></g></g></svg>